# xmcd
#
# Track frame offsets:
#	180
#	10730
#	26897
#	38462
#	50448
#	65700
#	76977
#	89449
#	104442
#	116757
#	129454
#	141949
#	153135
#	164749
#	177805
#	191333
#	203854
#	214506
#
# Disc length: 3039 seconds
#
# Revision: 2
# Processed by: cddbd v1.5.2PL0 Copyright (c) Steve Scherf et al.
# Submitted via: audiograbber 1.83.01
#
DISCID=f40bdd12
DTITLE=Various Artist - Rhapsody in Blues CD2
DYEAR=2005
DGENRE=Blues
TTITLE0=Big Joe Turner - Jumpin' Tonight (Midnight Rockin')
TTITLE1=BB King - The other night blues
TTITLE2=Willie Smith - Here comes the band
TTITLE3=Jimmy Witherspoon - Love my baby
TTITLE4=Willie Smith - Relaxin
TTITLE5=Billy Wright - Married Womans Boogie
TTITLE6=Jimmy Mc Cracklin - Blues Blasters Boogie
TTITLE7=Big Joe Turner - Chains of Love
TTITLE8=Freddie Slack - Down the Road Apiece Boogie
TTITLE9=Tiny Grimes - Frankie and Johnny Boogie
TTITLE10=Big Joe Turner - Still in the dark
TTITLE11=BB King - She's Dynamite
TTITLE12=Willie Mae Thornton - You did me wrong boogie
TTITLE13=Sonny Terry and  Brownie Mc Ghee - Lonesome Room
TTITLE14=John Lee Hooker - Bluebird
TTITLE15=Muddy Waters - I just want to make love to you
TTITLE16=Sonny Terry and Brownie Mc Ghee - Baby let's have some fun
TTITLE17=Muddy Waters - I'm ready
EXTD=
EXTT0=
EXTT1=
EXTT2=
EXTT3=
EXTT4=
EXTT5=
EXTT6=
EXTT7=
EXTT8=
EXTT9=
EXTT10=
EXTT11=
EXTT12=
EXTT13=
EXTT14=
EXTT15=
EXTT16=
EXTT17=
PLAYORDER=
